<?xml version="1.0" encoding="utf-8"?>
<!-- Generator: Adobe Illustrator 15.0.0, SVG Export Plug-In . SVG Version: 6.00 Build 0)  -->
<!DOCTYPE svg PUBLIC "-//W3C//DTD SVG 1.1//EN" "http://www.w3.org/Graphics/SVG/1.1/DTD/svg11.dtd">
<svg version="1.1" id="Calque_1" xmlns="http://www.w3.org/2000/svg" xmlns:xlink="http://www.w3.org/1999/xlink" x="0px" y="0px"
	 width="200px" height="69px" viewBox="0 0 200 69" enable-background="new 0 0 200 69" xml:space="preserve">
<g>
	<g>
		<path d="M31.996,20.13c0.82-0.503,5.239-2.852,12.368,0.091c7.333,3.026,11.883,0.398,12.447,0.041
			c-1.773-2.915-3.881-5.451-6.213-7.156c0.156-0.042,0.314-0.086,0.482-0.135c3.092-0.894,3.876-3.512,4.043-5.753
			c0.187-2.542,0.315-2.582,0.868-4.869c0.53-2.197-0.061-2.636-0.606-2.193c-0.294,0.239-2.85,0.829-4.365,2.011
			c-2.447,1.909-3.955,5.54-4.64,7.547c-0.013,0.03-0.105,0.309-0.135,0.407c-0.319,0.769-0.954,0.767-0.954,0.767l0,0
			c-0.307-0.034-0.616-0.052-0.927-0.052c-0.278,0-0.554,0.016-0.83,0.042c-0.006,0.001-0.01,0-0.016,0.001
			c-0.812,0.119-1.258-0.872-1.351-1.107c-0.948-2.723-3.498-8.09-9.23-9.535c0,0-1.041-0.798-0.724,0.551
			c0.302,1.289,0.926,2.592,0.788,4.486c-0.063,0.875-0.606,5.359,3.516,7.693c0.391,0.221,0.74,0.408,1.052,0.564
			C35.495,15.194,33.609,17.506,31.996,20.13z"/>
		<path d="M59.057,61.144c-5.051-3.129-6.751-4.229-6.645-5.426c0,0,0.001-0.195,0.051-0.492c0.123-0.635,0.51-1.718,1.749-2.336
			c0.041-0.021,0.075-0.043,0.106-0.065c3.936-2.285,6.811-5.962,7.825-10.553c-1.021,2.536-8.589,4.507-17.78,4.507
			c-9.189,0-16.758-1.971-17.779-4.507c0.227,1.03,0.55,2.014,0.957,2.947c0.341,1.923,0.801,6.448-1.373,10.41
			c-1.915,3.488-11.368,8.246-25.397,5.515c0,0-0.562-0.392-0.733-0.068c-0.251,0.478,0.779,0.864,1.839,1.144
			c9.768,2.587,24.51,1.534,29.14-2.28c2.112-1.738,2.928-4.081,3.135-6.603l0.001,0.003c0,0,0.057-0.66,0.882-0.164
			c0.237,0.143,1.09,0.699,1.228,1.328c0.119,0.894,0.127,1.991-0.336,2.761c-0.66,1.101-0.667,1.26,0.203,1.88
			c0.533,0.381,2.713,1.983,5.746,3.806c0.008,0.005,0.012,0.01,0.021,0.014c0.642,0.387,1.532,1.333,1.532,1.333l0,0
			c1.366,1.581,4.338,4.76,5.631,4.161c0.611-0.282-0.025-1.556-0.025-1.556s1.016,1.319,1.562,0.87
			c0.415-0.344-0.243-1.657-0.243-1.657s0.886,0.77,1.415,0.485c0.646-0.35-0.096-2.369-5.173-5.456
			c-5.079-3.088-6.455-3.561-6.576-4.938c0,0-0.003-0.07,0.002-0.189c0.04-0.304,0.212-0.947,0.95-0.879
			c1.099,0.179,2.232,0.273,3.393,0.273c1.328,0,2.621-0.122,3.867-0.354l0.001,0.002c0,0,0.064-0.013,0.084-0.017
			c0.146-0.018,0.43-0.008,0.432,0.345c-0.046,0.447-0.171,0.898-0.434,1.292c-0.743,1.113-0.5,1.266,0.277,1.981
			c0.479,0.441,2.674,2.372,5.682,4.24c0.005,0.006,0.008,0.009,0.016,0.013c0.641,0.386,1.75,1.446,1.75,1.446v-0.001
			c1.247,1.265,3.538,3.385,4.788,3.257c0.845-0.086,0.157-1.54,0.157-1.54s1.067,1.029,1.59,0.727
			c0.586-0.338-0.243-1.414-0.243-1.414s0.686,0.363,1.171,0.242C63.986,65.508,64.107,64.272,59.057,61.144z"/>
	</g>
	<g>
		<path d="M53.414,25.783c-0.605,0-1.108,0.182-1.494,0.542c-0.39,0.365-0.587,0.786-0.587,1.251v8.24
			c0,1.106-0.197,1.921-0.583,2.423c-0.374,0.485-0.97,0.722-1.825,0.722c-0.874,0-1.469-0.234-1.821-0.716
			c-0.367-0.503-0.554-1.32-0.554-2.429v-8.272c0-0.563-0.256-1.024-0.743-1.332c-0.661-0.417-1.319-0.568-2.12-0.302
			c-0.244,0.082-0.474,0.188-0.684,0.315c-0.223,0.137-0.411,0.307-0.56,0.506c-0.167,0.221-0.25,0.462-0.25,0.717v8.368
			c0,1.107-0.186,1.924-0.554,2.428c-0.353,0.482-0.949,0.717-1.82,0.717c-0.876,0-1.477-0.235-1.841-0.719
			c-0.377-0.503-0.568-1.319-0.568-2.426v-8.24c0-0.466-0.197-0.887-0.587-1.251c-0.386-0.36-0.899-0.542-1.526-0.542
			c-0.646,0-1.178,0.18-1.584,0.537c-0.416,0.364-0.627,0.788-0.627,1.257v8.112c0,1.021,0.1,1.985,0.295,2.868
			c0.202,0.901,0.553,1.693,1.045,2.354c0.496,0.666,1.171,1.192,2.003,1.565c0.826,0.367,1.857,0.553,3.067,0.553
			c1.26,0,2.316-0.232,3.138-0.694c0.689-0.386,1.269-0.895,1.73-1.515c0.444,0.62,1.011,1.129,1.69,1.515
			c0.812,0.462,1.884,0.694,3.188,0.694c1.211,0,2.238-0.187,3.053-0.554c0.822-0.372,1.489-0.899,1.987-1.564
			c0.493-0.662,0.844-1.454,1.044-2.354c0.195-0.883,0.295-1.848,0.295-2.868v-8.112c0-0.467-0.205-0.89-0.607-1.255
			C54.622,25.964,54.083,25.783,53.414,25.783z"/>
		<path d="M77.331,27.682c-0.572-0.595-1.315-1.065-2.207-1.4c-0.884-0.332-1.944-0.499-3.146-0.499
			c-1.297,0-2.448,0.23-3.424,0.685c-0.974,0.453-1.792,1.054-2.435,1.786c-0.641,0.729-1.133,1.559-1.464,2.463
			s-0.498,1.834-0.498,2.759v2.822c0,0.839,0.128,1.666,0.382,2.46c0.257,0.802,0.646,1.524,1.157,2.146
			c0.516,0.628,1.185,1.145,1.989,1.535c0.806,0.391,1.754,0.589,2.818,0.589c0.659,0,1.224-0.05,1.681-0.15
			c0.463-0.102,0.874-0.253,1.217-0.447c0.345-0.194,0.642-0.422,0.884-0.676c0.145-0.153,0.287-0.317,0.421-0.488v0.13
			c0,0.466,0.197,0.886,0.587,1.25c0.385,0.36,0.888,0.542,1.494,0.542c0.668,0,1.208-0.181,1.604-0.539
			c0.403-0.364,0.607-0.786,0.607-1.253v-8.979c0-0.946-0.134-1.829-0.399-2.623C78.33,28.987,77.903,28.277,77.331,27.682z
			 M70.59,30.129c0.409-0.185,0.877-0.279,1.389-0.279c0.887,0,1.575,0.199,2.044,0.59c0.454,0.38,0.684,1.067,0.684,2.042v3.013
			c0,0.577-0.1,1.087-0.295,1.517c-0.196,0.433-0.454,0.795-0.765,1.077c-0.312,0.283-0.675,0.501-1.076,0.647
			c-0.405,0.148-0.83,0.224-1.266,0.224c-0.785,0-1.422-0.247-1.949-0.754c-0.524-0.503-0.778-1.087-0.778-1.781v-3.078
			c0-0.474,0.085-0.924,0.252-1.336c0.166-0.415,0.402-0.79,0.7-1.117C69.82,30.574,70.178,30.317,70.59,30.129z"/>
		<path d="M90.383,20.332c-0.645,0-1.178,0.181-1.584,0.538c-0.416,0.365-0.626,0.788-0.626,1.256v19.11
			c0,0.469,0.21,0.892,0.626,1.258c0.406,0.355,0.939,0.535,1.584,0.535c0.628,0,1.141-0.182,1.526-0.542
			c0.391-0.364,0.588-0.785,0.588-1.251v-19.11c0-0.465-0.197-0.885-0.588-1.25C91.523,20.514,91.011,20.332,90.383,20.332z"/>
		<path d="M104.074,20.332c-0.646,0-1.179,0.181-1.584,0.538c-0.415,0.365-0.626,0.788-0.626,1.256v19.11
			c0,0.469,0.211,0.892,0.626,1.258c0.405,0.355,0.938,0.535,1.584,0.535c0.628,0,1.141-0.182,1.526-0.542
			c0.391-0.364,0.588-0.785,0.588-1.251v-19.11c0-0.465-0.197-0.885-0.588-1.25C105.215,20.514,104.702,20.332,104.074,20.332z"/>
		<path d="M128.12,27.682c-0.573-0.595-1.316-1.065-2.207-1.4c-0.885-0.332-1.944-0.499-3.146-0.499
			c-1.297,0-2.447,0.23-3.424,0.685c-0.973,0.453-1.79,1.054-2.435,1.786c-0.64,0.728-1.133,1.558-1.464,2.463
			c-0.33,0.905-0.498,1.834-0.498,2.759v2.822c0,0.838,0.129,1.665,0.383,2.46c0.255,0.801,0.644,1.523,1.156,2.146
			c0.516,0.628,1.186,1.145,1.988,1.535c0.807,0.391,1.756,0.589,2.818,0.589c0.659,0,1.224-0.05,1.681-0.15
			c0.464-0.102,0.873-0.252,1.219-0.447c0.342-0.194,0.64-0.422,0.883-0.676c0.146-0.153,0.287-0.317,0.42-0.488v0.13
			c0,0.466,0.198,0.886,0.589,1.25c0.384,0.36,0.886,0.542,1.493,0.542c0.668,0,1.209-0.181,1.604-0.539
			c0.404-0.363,0.607-0.786,0.607-1.253v-8.979c0-0.946-0.135-1.829-0.398-2.623C129.118,28.988,128.692,28.278,128.12,27.682z
			 M121.378,30.129c0.409-0.185,0.878-0.279,1.389-0.279c0.889,0,1.575,0.199,2.045,0.59c0.453,0.38,0.683,1.066,0.683,2.042v3.013
			c0,0.575-0.099,1.086-0.294,1.517c-0.197,0.433-0.455,0.795-0.766,1.077c-0.312,0.283-0.675,0.501-1.076,0.647
			c-0.405,0.148-0.83,0.224-1.264,0.224c-0.786,0-1.424-0.247-1.951-0.754c-0.524-0.503-0.777-1.087-0.777-1.781v-3.078
			c0-0.474,0.084-0.924,0.251-1.336c0.168-0.413,0.403-0.789,0.7-1.116C120.609,30.574,120.968,30.316,121.378,30.129z"/>
		<path d="M152.135,28.019c-0.582-0.704-1.331-1.26-2.224-1.65c-0.889-0.39-1.953-0.586-3.16-0.586c-0.85,0-1.622,0.154-2.299,0.458
			c-0.53,0.238-0.996,0.561-1.391,0.96v-5.076c0-0.465-0.197-0.887-0.588-1.25c-0.387-0.36-0.899-0.543-1.526-0.543
			c-0.646,0-1.179,0.181-1.584,0.538c-0.414,0.365-0.627,0.788-0.627,1.256v14.269c0,0.952,0.163,1.845,0.487,2.655
			c0.322,0.815,0.815,1.536,1.464,2.141c0.646,0.6,1.462,1.074,2.428,1.406c0.953,0.33,2.08,0.497,3.347,0.497
			c1.231,0,2.322-0.208,3.243-0.617c0.921-0.411,1.704-0.975,2.326-1.675c0.623-0.701,1.089-1.522,1.389-2.443
			c0.297-0.911,0.447-1.895,0.447-2.926v-1.859c0-1.112-0.145-2.149-0.43-3.082C153.15,29.55,152.712,28.719,152.135,28.019z
			 M146.462,39.025c-0.985,0-1.82-0.212-2.476-0.628c-0.622-0.397-0.925-1.011-0.925-1.876v-3.676
			c0.038-1.042,0.344-1.809,0.905-2.275c0.576-0.478,1.308-0.72,2.175-0.72c1.018,0,1.816,0.312,2.438,0.955
			c0.618,0.637,0.932,1.59,0.932,2.832v1.923c0,1.057-0.283,1.909-0.844,2.535C148.112,38.722,147.391,39.025,146.462,39.025z"/>
		<path d="M174.997,27.682c-0.573-0.595-1.316-1.065-2.207-1.4c-0.887-0.332-1.944-0.499-3.146-0.499
			c-1.297,0-2.447,0.23-3.424,0.685c-0.973,0.453-1.79,1.054-2.434,1.786c-0.64,0.728-1.134,1.558-1.464,2.463
			c-0.331,0.905-0.501,1.834-0.501,2.759v2.822c0,0.838,0.129,1.665,0.383,2.46c0.255,0.801,0.646,1.523,1.159,2.146
			c0.515,0.628,1.185,1.145,1.987,1.535c0.807,0.391,1.756,0.589,2.818,0.589c0.659,0,1.224-0.05,1.681-0.15
			c0.464-0.102,0.874-0.252,1.217-0.447c0.344-0.194,0.64-0.422,0.885-0.676c0.146-0.153,0.285-0.317,0.421-0.488v0.13
			c0,0.466,0.197,0.886,0.588,1.25c0.384,0.36,0.887,0.542,1.494,0.542c0.667,0,1.208-0.181,1.604-0.539
			c0.401-0.363,0.607-0.786,0.607-1.253v-8.979c0-0.946-0.136-1.829-0.399-2.623C175.995,28.988,175.57,28.278,174.997,27.682z
			 M168.255,30.129c0.41-0.185,0.878-0.279,1.389-0.279c0.889,0,1.575,0.199,2.046,0.59c0.452,0.38,0.683,1.066,0.683,2.042v3.013
			c0,0.575-0.099,1.086-0.294,1.517c-0.198,0.433-0.455,0.795-0.767,1.077c-0.313,0.283-0.674,0.501-1.075,0.647
			c-0.406,0.148-0.831,0.224-1.265,0.224c-0.785,0-1.423-0.247-1.951-0.754c-0.523-0.503-0.777-1.087-0.777-1.781v-3.078
			c0-0.474,0.084-0.924,0.252-1.336c0.167-0.413,0.401-0.789,0.699-1.116C167.486,30.574,167.843,30.316,168.255,30.129z"/>
		<path d="M199.413,29.632c-0.271-0.787-0.697-1.476-1.271-2.05c-0.571-0.571-1.313-1.025-2.204-1.35
			c-0.887-0.32-1.943-0.482-3.146-0.482c-1.296,0-2.442,0.23-3.408,0.686c-0.964,0.453-1.777,1.06-2.419,1.803
			c-0.642,0.741-1.129,1.61-1.451,2.582c-0.317,0.965-0.479,1.977-0.479,3.007v1.892c0,2.241,0.573,4.035,1.706,5.334
			c1.143,1.31,2.78,1.974,4.864,1.974c1.112,0,2.028-0.195,2.722-0.581c0.47-0.263,0.869-0.582,1.193-0.954v0.929
			c0,0.71-0.081,1.286-0.238,1.711c-0.154,0.413-0.367,0.743-0.629,0.978c-0.262,0.233-0.575,0.395-0.934,0.48
			c-0.382,0.09-0.813,0.136-1.279,0.136c-0.771,0-1.372-0.042-1.79-0.123c-0.46-0.089-0.808-0.134-1.064-0.134
			c-0.672,0-1.188,0.168-1.528,0.497c-0.346,0.333-0.521,0.779-0.521,1.329c0,0.741,0.401,1.374,1.242,1.902
			c0.301,0.115,0.772,0.215,1.444,0.306c0.653,0.085,1.4,0.129,2.218,0.129c0.964,0,1.899-0.145,2.782-0.43
			c0.884-0.288,1.678-0.733,2.358-1.322c0.681-0.593,1.23-1.35,1.63-2.249c0.398-0.897,0.601-1.979,0.601-3.21V32.129
			C199.812,31.247,199.677,30.406,199.413,29.632z M191.415,30.125c0.406-0.204,0.87-0.306,1.378-0.306
			c0.892,0,1.582,0.184,2.053,0.549c0.455,0.352,0.676,0.886,0.676,1.633v3.997c-0.041,1.034-0.346,1.768-0.936,2.24
			c-0.605,0.486-1.308,0.723-2.145,0.723c-2.052,0-3.048-1.018-3.048-3.112V33.7c0-0.541,0.086-1.053,0.255-1.521
			c0.168-0.466,0.404-0.878,0.702-1.225C190.645,30.609,191.003,30.331,191.415,30.125z"/>
	</g>
</g>
</svg>
